{"asset":{"version":"2.0","generator":"Blockbench 4.6.5 glTF exporter"},"scenes":[{"nodes":[13],"name":"blockbench_export"}],"scene":0,"nodes":[{"rotation":[0,0,-0.7071067811865475,0.7071067811865476],"translation":[0.5000000000000001,0.1250000000000001,0.4375],"name":"wheel","mesh":0},{"name":"base","mesh":1},{"name":"robot","mesh":2},{"translation":[0,0.125,0.0625],"name":"robot","mesh":3},{"rotation":[0.7071067811865475,0,0,0.7071067811865476],"translation":[0,1.25,-0.25],"name":"robot","mesh":4},{"rotation":[0.7071067811865475,0,0,0.7071067811865476],"translation":[0,1.25,-0.25],"name":"gripper","mesh":5},{"rotation":[0.7071067811865475,0,0,0.7071067811865476],"translation":[0,1.25,-0.25],"name":"gripper","mesh":6},{"rotation":[0.7071067811865475,0,0,0.7071067811865476],"translation":[0,1.25,-0.25],"name":"gripper","mesh":7},{"name":"joint","mesh":8},{"rotation":[0.7071067811865475,0,0,0.7071067811865476],"translation":[-1.6012832085939759e-18,1.0625,-0.25],"name":"joint","mesh":9},{"rotation":[0,0,-0.7071067811865475,0.7071067811865476],"translation":[0.5000000000000001,0.1250000000000001,0.4375],"name":"wheel","mesh":10},{"rotation":[0,0,-0.7071067811865475,0.7071067811865476],"translation":[0.5000000000000001,0.1250000000000001,0.4375],"name":"wheel","mesh":11},{"rotation":[0,0,-0.7071067811865475,0.7071067811865476],"translation":[0.5000000000000001,0.1250000000000001,0.4375],"name":"wheel","mesh":12},{"children":[0,1,2,3,4,5,6,7,8,9,10,11,12]}],"bufferViews":[{"buffer":0,"byteOffset":0,"byteLength":1440,"target":34962,"byteStride":12},{"buffer":0,"byteOffset":1440,"byteLength":1440,"target":34962,"byteStride":12},{"buffer":0,"byteOffset":2880,"byteLength":960,"target":34962,"byteStride":8},{"buffer":0,"byteOffset":3840,"byteLength":288,"target":34963},{"buffer":0,"byteOffset":4128,"byteLength":288,"target":34962,"byteStride":12},{"buffer":0,"byteOffset":4416,"byteLength":288,"target":34962,"byteStride":12},{"buffer":0,"byteOffset":4704,"byteLength":192,"target":34962,"byteStride":8},{"buffer":0,"byteOffset":4896,"byteLength":72,"target":34963},{"buffer":0,"byteOffset":4968,"byteLength":288,"target":34962,"byteStride":12},{"buffer":0,"byteOffset":5256,"byteLength":288,"target":34962,"byteStride":12},{"buffer":0,"byteOffset":5544,"byteLength":192,"target":34962,"byteStride":8},{"buffer":0,"byteOffset":5736,"byteLength":72,"target":34963},{"buffer":0,"byteOffset":5808,"byteLength":288,"target":34962,"byteStride":12},{"buffer":0,"byteOffset":6096,"byteLength":288,"target":34962,"byteStride":12},{"buffer":0,"byteOffset":6384,"byteLength":192,"target":34962,"byteStride":8},{"buffer":0,"byteOffset":6576,"byteLength":72,"target":34963},{"buffer":0,"byteOffset":6648,"byteLength":288,"target":34962,"byteStride":12},{"buffer":0,"byteOffset":6936,"byteLength":288,"target":34962,"byteStride":12},{"buffer":0,"byteOffset":7224,"byteLength":192,"target":34962,"byteStride":8},{"buffer":0,"byteOffset":7416,"byteLength":72,"target":34963},{"buffer":0,"byteOffset":7488,"byteLength":288,"target":34962,"byteStride":12},{"buffer":0,"byteOffset":7776,"byteLength":288,"target":34962,"byteStride":12},{"buffer":0,"byteOffset":8064,"byteLength":192,"target":34962,"byteStride":8},{"buffer":0,"byteOffset":8256,"byteLength":72,"target":34963},{"buffer":0,"byteOffset":8328,"byteLength":288,"target":34962,"byteStride":12},{"buffer":0,"byteOffset":8616,"byteLength":288,"target":34962,"byteStride":12},{"buffer":0,"byteOffset":8904,"byteLength":192,"target":34962,"byteStride":8},{"buffer":0,"byteOffset":9096,"byteLength":72,"target":34963},{"buffer":0,"byteOffset":9168,"byteLength":288,"target":34962,"byteStride":12},{"buffer":0,"byteOffset":9456,"byteLength":288,"target":34962,"byteStride":12},{"buffer":0,"byteOffset":9744,"byteLength":192,"target":34962,"byteStride":8},{"buffer":0,"byteOffset":9936,"byteLength":72,"target":34963},{"buffer":0,"byteOffset":10008,"byteLength":1440,"target":34962,"byteStride":12},{"buffer":0,"byteOffset":11448,"byteLength":1440,"target":34962,"byteStride":12},{"buffer":0,"byteOffset":12888,"byteLength":960,"target":34962,"byteStride":8},{"buffer":0,"byteOffset":13848,"byteLength":288,"target":34963},{"buffer":0,"byteOffset":14136,"byteLength":1440,"target":34962,"byteStride":12},{"buffer":0,"byteOffset":15576,"byteLength":1440,"target":34962,"byteStride":12},{"buffer":0,"byteOffset":17016,"byteLength":960,"target":34962,"byteStride":8},{"buffer":0,"byteOffset":17976,"byteLength":288,"target":34963},{"buffer":0,"byteOffset":18264,"byteLength":1440,"target":34962,"byteStride":12},{"buffer":0,"byteOffset":19704,"byteLength":1440,"target":34962,"byteStride":12},{"buffer":0,"byteOffset":21144,"byteLength":960,"target":34962,"byteStride":8},{"buffer":0,"byteOffset":22104,"byteLength":288,"target":34963},{"buffer":0,"byteOffset":22392,"byteLength":1440,"target":34962,"byteStride":12},{"buffer":0,"byteOffset":23832,"byteLength":1440,"target":34962,"byteStride":12},{"buffer":0,"byteOffset":25272,"byteLength":960,"target":34962,"byteStride":8},{"buffer":0,"byteOffset":26232,"byteLength":288,"target":34963},{"buffer":0,"byteOffset":26520,"byteLength":1440,"target":34962,"byteStride":12},{"buffer":0,"byteOffset":27960,"byteLength":1440,"target":34962,"byteStride":12},{"buffer":0,"byteOffset":29400,"byteLength":960,"target":34962,"byteStride":8},{"buffer":0,"byteOffset":30360,"byteLength":288,"target":34963}],"buffers":[{"byteLength":30648,"uri":"data:application/octet-stream;base64,"}],"accessors":[{"bufferView":0,"componentType":5126,"count":120,"max":[0.125,-0.015625,0.09375],"min":[-0.1875,-0.140625,-0.21875],"type":"VEC3"},{"bufferView":1,"componentType":5126,"count":120,"max":[1,1,1],"min":[-1,-1,-1],"type":"VEC3"},{"bufferView":2,"componentType":5126,"count":120,"max":[0.703125,0.78125],"min":[0.25,0.28125],"type":"VEC2"},{"bufferView":3,"componentType":5123,"count":144,"max":[119],"min":[0],"type":"SCALAR"},{"bufferView":4,"componentType":5126,"count":24,"max":[0.4375,0.375,0.625],"min":[-0.4375,0.0625,-0.625],"type":"VEC3"},{"bufferView":5,"componentType":5126,"count":24,"max":[1,1,1],"min":[-1,-1,-1],"type":"VEC3"},{"bufferView":6,"componentType":5126,"count":24,"max":[0.65625,1],"min":[0,0.53125],"type":"VEC2"},{"bufferView":7,"componentType":5123,"count":36,"max":[23],"min":[0],"type":"SCALAR"},{"bufferView":8,"componentType":5126,"count":24,"max":[0.3125,0.4375,0.125],"min":[-0.3125,0.375,-0.5],"type":"VEC3"},{"bufferView":9,"componentType":5126,"count":24,"max":[1,1,1],"min":[-1,-1,-1],"type":"VEC3"},{"bufferView":10,"componentType":5126,"count":24,"max":[0.765625,0.828125],"min":[0,0.453125],"type":"VEC2"},{"bufferView":11,"componentType":5123,"count":36,"max":[23],"min":[0],"type":"SCALAR"},{"bufferView":12,"componentType":5126,"count":24,"max":[0.078125,0.9375,-0.234375],"min":[-0.078125,0.4375,-0.390625],"type":"VEC3"},{"bufferView":13,"componentType":5126,"count":24,"max":[1,1,1],"min":[-1,-1,-1],"type":"VEC3"},{"bufferView":14,"componentType":5126,"count":24,"max":[0.65625,0.8125],"min":[0,0.296875],"type":"VEC2"},{"bufferView":15,"componentType":5123,"count":36,"max":[23],"min":[0],"type":"SCALAR"},{"bufferView":16,"componentType":5126,"count":24,"max":[0.078125,0.421875,0.1875],"min":[-0.078125,-0.078125,0.03125],"type":"VEC3"},{"bufferView":17,"componentType":5126,"count":24,"max":[1,1,1],"min":[-1,-1,-1],"type":"VEC3"},{"bufferView":18,"componentType":5126,"count":24,"max":[0.65625,0.609375],"min":[0.046875,0.296875],"type":"VEC2"},{"bufferView":19,"componentType":5123,"count":36,"max":[23],"min":[0],"type":"SCALAR"},{"bufferView":20,"componentType":5126,"count":24,"max":[0.390625,0.671875,0.171875],"min":[-0.390625,0.546875,0.015625],"type":"VEC3"},{"bufferView":21,"componentType":5126,"count":24,"max":[1,1,1],"min":[-1,-1,-1],"type":"VEC3"},{"bufferView":22,"componentType":5126,"count":24,"max":[0.640625,0.921875],"min":[0.140625,0.34375],"type":"VEC2"},{"bufferView":23,"componentType":5123,"count":36,"max":[23],"min":[0],"type":"SCALAR"},{"bufferView":24,"componentType":5126,"count":24,"max":[-0.296875,0.796875,0.171875],"min":[-0.390625,0.671875,0.015625],"type":"VEC3"},{"bufferView":25,"componentType":5126,"count":24,"max":[1,1,1],"min":[-1,-1,-1],"type":"VEC3"},{"bufferView":26,"componentType":5126,"count":24,"max":[0.671875,0.734375],"min":[0.234375,0.328125],"type":"VEC2"},{"bufferView":27,"componentType":5123,"count":36,"max":[23],"min":[0],"type":"SCALAR"},{"bufferView":28,"componentType":5126,"count":24,"max":[0.390625,0.796875,0.171875],"min":[0.296875,0.671875,0.015625],"type":"VEC3"},{"bufferView":29,"componentType":5126,"count":24,"max":[1,1,1],"min":[-1,-1,-1],"type":"VEC3"},{"bufferView":30,"componentType":5126,"count":24,"max":[0.6875,1],"min":[0.546875,0.3125],"type":"VEC2"},{"bufferView":31,"componentType":5123,"count":36,"max":[23],"min":[0],"type":"SCALAR"},{"bufferView":32,"componentType":5126,"count":120,"max":[0.1875,0.5625,-0.0625],"min":[-0.1875,0.4375,-0.4375],"type":"VEC3"},{"bufferView":33,"componentType":5126,"count":120,"max":[1,1,1],"min":[-1,-1,-1],"type":"VEC3"},{"bufferView":34,"componentType":5126,"count":120,"max":[0.6875,0.828125],"min":[0.140625,0.3125],"type":"VEC2"},{"bufferView":35,"componentType":5123,"count":144,"max":[119],"min":[0],"type":"SCALAR"},{"bufferView":36,"componentType":5126,"count":120,"max":[0.125,0.546875,0.03125],"min":[-0.125,0.421875,-0.21875],"type":"VEC3"},{"bufferView":37,"componentType":5126,"count":120,"max":[1,1,1],"min":[-1,-1,-1],"type":"VEC3"},{"bufferView":38,"componentType":5126,"count":120,"max":[0.7198523879051208,1],"min":[0,0.265625],"type":"VEC2"},{"bufferView":39,"componentType":5123,"count":144,"max":[119],"min":[0],"type":"SCALAR"},{"bufferView":40,"componentType":5126,"count":120,"max":[0.125,-0.015625,-0.671875],"min":[-0.1875,-0.140625,-0.984375],"type":"VEC3"},{"bufferView":41,"componentType":5126,"count":120,"max":[1,1,1],"min":[-1,-1,-1],"type":"VEC3"},{"bufferView":42,"componentType":5126,"count":120,"max":[0.71875,0.859375],"min":[0.109375,0.265625],"type":"VEC2"},{"bufferView":43,"componentType":5123,"count":144,"max":[119],"min":[0],"type":"SCALAR"},{"bufferView":44,"componentType":5126,"count":120,"max":[0.125,-0.859375,-0.671875],"min":[-0.1875,-0.984375,-0.984375],"type":"VEC3"},{"bufferView":45,"componentType":5126,"count":120,"max":[1,1,1],"min":[-1,-1,-1],"type":"VEC3"},{"bufferView":46,"componentType":5126,"count":120,"max":[0.71875,0.5625],"min":[0,0.265625],"type":"VEC2"},{"bufferView":47,"componentType":5123,"count":144,"max":[119],"min":[0],"type":"SCALAR"},{"bufferView":48,"componentType":5126,"count":120,"max":[0.125,-0.859375,0.09375],"min":[-0.1875,-0.984375,-0.21875],"type":"VEC3"},{"bufferView":49,"componentType":5126,"count":120,"max":[1,1,1],"min":[-1,-1,-1],"type":"VEC3"},{"bufferView":50,"componentType":5126,"count":120,"max":[0.734375,1],"min":[0.15625,0.265625],"type":"VEC2"},{"bufferView":51,"componentType":5123,"count":144,"max":[119],"min":[0],"type":"SCALAR"}],"materials":[{"pbrMetallicRoughness":{"metallicFactor":0,"roughnessFactor":1,"baseColorTexture":{"index":0}},"alphaMode":"MASK","alphaCutoff":0.05,"doubleSided":true}],"textures":[{"sampler":0,"source":0,"name":"robot_texture.png"}],"samplers":[{"magFilter":9728,"minFilter":9728,"wrapS":33071,"wrapT":33071}],"images":[{"mimeType":"image/png","uri":"data:image/png;base64,"}],"meshes":[{"primitives":[{"mode":4,"attributes":{"POSITION":0,"NORMAL":1,"TEXCOORD_0":2},"indices":3,"material":0}]},{"primitives":[{"mode":4,"attributes":{"POSITION":4,"NORMAL":5,"TEXCOORD_0":6},"indices":7,"material":0}]},{"primitives":[{"mode":4,"attributes":{"POSITION":8,"NORMAL":9,"TEXCOORD_0":10},"indices":11,"material":0}]},{"primitives":[{"mode":4,"attributes":{"POSITION":12,"NORMAL":13,"TEXCOORD_0":14},"indices":15,"material":0}]},{"primitives":[{"mode":4,"attributes":{"POSITION":16,"NORMAL":17,"TEXCOORD_0":18},"indices":19,"material":0}]},{"primitives":[{"mode":4,"attributes":{"POSITION":20,"NORMAL":21,"TEXCOORD_0":22},"indices":23,"material":0}]},{"primitives":[{"mode":4,"attributes":{"POSITION":24,"NORMAL":25,"TEXCOORD_0":26},"indices":27,"material":0}]},{"primitives":[{"mode":4,"attributes":{"POSITION":28,"NORMAL":29,"TEXCOORD_0":30},"indices":31,"material":0}]},{"primitives":[{"mode":4,"attributes":{"POSITION":32,"NORMAL":33,"TEXCOORD_0":34},"indices":35,"material":0}]},{"primitives":[{"mode":4,"attributes":{"POSITION":36,"NORMAL":37,"TEXCOORD_0":38},"indices":39,"material":0}]},{"primitives":[{"mode":4,"attributes":{"POSITION":40,"NORMAL":41,"TEXCOORD_0":42},"indices":43,"material":0}]},{"primitives":[{"mode":4,"attributes":{"POSITION":44,"NORMAL":45,"TEXCOORD_0":46},"indices":47,"material":0}]},{"primitives":[{"mode":4,"attributes":{"POSITION":48,"NORMAL":49,"TEXCOORD_0":50},"indices":51,"material":0}]}]}